# xmcd CD database file
#
# Track frame offsets:
#	150
#	15980
#	32772
#	45978
#	62289
#	75495
#	87438
#	103764
#	119718
#	136577
#	151363
#	165863
#	179422
#	193453
#	206956
#	218729
#	235894
#	251565
#	266659
#	282389
#	295075
#
# Disc length: 4114 seconds
#
# Revision: 0
# Processed by: cddbd v1.5.2PL0 Copyright (c) Steve Scherf et al.
# Submitted via: CDex 1.51
#
DISCID=26101015
DTITLE=Billie Holiday - Blue Moon
DYEAR=2003
DGENRE=Jazz
TTITLE0=Blue moon
TTITLE1=Autumn in new york
TTITLE2=I only have eyes for you
TTITLE3=These foolish things
TTITLE4=East of the sun
TTITLE5=My man
TTITLE6=Lover come back to me
TTITLE7=Solitude
TTITLE8=Stormy weather
TTITLE9=Do your duty
TTITLE10=He's funny that way
TTITLE11=Moonglow
TTITLE12=What is this thing called love
TTITLE13=Love for sale
TTITLE14=You better go now
TTITLE15=Everything i have is yours
TTITLE16=You turned the tables on me
TTITLE17=I'aint nobody's business if i do 
TTITLE18=Yesterday
TTITLE19=If the moon turns green
TTITLE20=Easy to love
EXTD=YEAR: 2003
EXTT0=
EXTT1=
EXTT2=
EXTT3=
EXTT4=
EXTT5=
EXTT6=
EXTT7=
EXTT8=
EXTT9=
EXTT10=
EXTT11=
EXTT12=
EXTT13=
EXTT14=
EXTT15=
EXTT16=
EXTT17=
EXTT18=
EXTT19=
EXTT20=
PLAYORDER=
